<?xml version="1.0" encoding="utf-8"?>
<!-- Generator: Adobe Illustrator 28.2.0, SVG Export Plug-In . SVG Version: 6.00 Build 0)  -->
<svg version="1.1" id="Layer_1" xmlns="http://www.w3.org/2000/svg" xmlns:xlink="http://www.w3.org/1999/xlink" x="0px" y="0px"
	 viewBox="0 0 2807 1604" style="enable-background:new 0 0 2807 1604;" xml:space="preserve">
<style type="text/css">
	.st0{fill:#F3F3F3;}
	.st1{opacity:0.6;clip-path:url(#SVGID_00000078744086996227888110000016105152736400397224_);fill:#FFFFFF;}
	.st2{opacity:0.3;clip-path:url(#SVGID_00000078744086996227888110000016105152736400397224_);fill:#D0D0D0;}
	.st3{clip-path:url(#SVGID_00000078744086996227888110000016105152736400397224_);fill:#D0D0D0;}
	.st4{clip-path:url(#SVGID_00000078744086996227888110000016105152736400397224_);}
	.st5{fill:#D0D0D0;}
</style>
<g>
	<g>
		<g>
			<defs>
				<rect id="SVGID_1_" width="2806.2" height="1603.6"/>
			</defs>
			<clipPath id="SVGID_00000091705102748189802170000007404704648036915078_">
				<use xlink:href="#SVGID_1_"  style="overflow:visible;"/>
			</clipPath>
		</g>
	</g>
	<g>
		<rect class="st0" width="2806.2" height="1603.6"/>
		<g>
			<defs>
				<rect id="SVGID_00000009586405522502136460000016555917087822964365_" width="2806.2" height="1603.6"/>
			</defs>
			<clipPath id="SVGID_00000183943345901526987690000004649022119795752868_">
				<use xlink:href="#SVGID_00000009586405522502136460000016555917087822964365_"  style="overflow:visible;"/>
			</clipPath>
			<path style="opacity:0.6;clip-path:url(#SVGID_00000183943345901526987690000004649022119795752868_);fill:#FFFFFF;" d="
				M3394.2,26.5c-51.8-203.1-174.2-387.5-341.3-514c-113-85.6-245.2-145.2-350.2-240.6c-52.9-48.1-97.9-104.3-149.8-153.5
				c-51.9-49.2-113.1-92.2-183.4-105.3c-70.3-13-150.7,10-190,69.7l61.3,27.3c-74.7-30.4-163-26.5-234.3,11.4
				c-77.1,41-132.4,120.6-143.9,207.1c-11.5,86.4,18.1,172.1,35.9,257.4c17.8,85.3,21.3,182.6-33.2,250.6
				c-57.6,71.9-162.1,89-227.4,154c-75,74.6-76.7,210.1-3.7,286.6c50.9,53.3,125.3,74.9,193.3,103.3c67.9,28.4,138.2,73,156.6,144.4
				c32.1,124.8-111,235.3-104.8,364c5.4,113.7,125,188.4,236.8,209.1c173.8,32.2,361.2-19.9,493.5-137.2
				c68.7-60.9,133.4-143,225.1-147.9c75.3-4,143,47.4,218.1,54.7c65,6.3,130.1-22.1,178.7-65.7c48.6-43.6,82.5-101.3,109.4-160.9
				C3426.7,450.1,3446,229.6,3394.2,26.5z"/>
			<path style="opacity:0.6;clip-path:url(#SVGID_00000183943345901526987690000004649022119795752868_);fill:#FFFFFF;" d="
				M-423.9,1913c169.1,123.8,380.8,188.3,590.3,179.7c141.7-5.8,281.6-43.8,423.3-37c71.4,3.4,141.9,18.3,213.2,23.2
				c71.3,5,146-0.8,208.5-35.4c62.5-34.6,109.9-103.5,102.3-174.6l-64.7,17.9c77-24.1,142.7-83.2,173.6-157.8
				c33.5-80.7,25.5-177.2-20.6-251.4c-46-74-123.4-121.3-191.3-175.9c-68-54.5-132.5-127.4-133.7-214.5
				c-1.3-92.1,68.5-171.8,77.6-263.5c10.4-105.3-74.3-210.9-179.4-223.5c-73.1-8.8-144.3,21.9-214.9,43.1
				c-70.5,21.2-153.1,31.5-212.6-11.9c-104.1-75.9-64-252.2-150.6-347.6c-76.5-84.3-216.2-65.9-315.8-10.8
				c-154.6,85.7-266.1,245-293.7,419.6c-14.3,90.7-12,195.2-79.7,257.3c-55.6,51-140.5,54.4-203.1,96.5
				c-54.2,36.5-86.4,99.8-96.2,164.3c-9.8,64.6,0.8,130.7,17.9,193.7C-718.4,1606.8-593,1789.2-423.9,1913z"/>
			<path style="opacity:0.3;clip-path:url(#SVGID_00000183943345901526987690000004649022119795752868_);fill:#D0D0D0;" d="
				M1571.6,307.1c-17.3,8.3-39.1,7.8-57.7,4.7c-19-2.9-36.8-8.6-54.6-15c-35.7-12.8-71.4-29-119.4-40
				c-96.4-22.6-175.8,27.9-209.4,45.8c-15.3,8.2-39.6,21.5-59.7,33.7c-4.6,2.8-8.9,5.4-13,7.9c31.8-37.8,66.7-58.1,102-74.1
				c38.8-17.8,79.3-29.8,124.9-62.2c30.4-21.8,52.1-49.1,62.8-74.7c11.3-25.4,11.4-48.2,7.8-64c-3-15.8-11.2-26.3-16.3-32.4
				c-5.5-6.2-9.7-8.6-9.7-8.6c-7.1,35.5-31,55.6-56.3,66.9c-25.9,11.8-54.3,17.1-88.8,31.3c-34.6,14.1-59.5,40.5-76.2,67.6
				c-16.9,27.2-25.2,54.7-31.2,70.1c-5.3,13.9-13,36.6-18.5,55.8c-2.9,10.8-5.5,20.5-7.3,26.9c-56.7,8.4-113.1,18.7-169,30.9
				c23.6-28.5,48.2-47.2,73.5-64.9c31.5-22.2,65.1-43.6,94.2-82.8c38.3-53.5,35.7-100.3,25-125.8c-11-26.4-27.8-36.2-27.8-36.2
				c-7.1,30.5-25.5,50-46.1,65.3c-20.9,15.5-44,27.1-68.1,45.3c-24,18-35.4,43.4-42.4,69.4c-6.9,25.8-8.8,51.7-11.4,66.4
				c-2.7,16.1-7.8,46.2-11.2,66.4c-9.6,2.2-19.3,4.4-28.9,6.7c-13.3,1.1-29.3,3.6-41.7,8c-5.7,2.2-10.6,4.3-14.6,6.4
				c-11.2,3-22.5,6-33.6,9.3c-24.9,7.4-49.7,15.3-74.4,23.6c22-22.1,42-38.3,63-53.3c15-10.8,30-21.1,44.7-32.5
				c15-11.9,28.3-22.4,44.3-41.6c18.8-23.4,26.2-41,30.8-56.3c4.3-15.1,5.1-28,5.8-40.1c0.6-11.2,1.2-22.4,1.6-30.7
				c0.4-7.9,0.2-13,0.2-13c-30.4,14.8-53.1,28.5-78.5,41.1c-12,6.3-25,13.1-37.1,19.5c-6.3,3.5-12.3,6.8-17.9,9.8
				c-5.6,3-11.3,6.1-18.3,11.2c-26.1,18.3-36.6,44-42.2,69.2c-5.5,25.2-6.1,50.1-8.4,64.5c-1.9,12.8-5.3,33.9-9.7,52.2
				c-0.6,2.7-1.3,5.4-2,7.9c-63.2,22.1-125.2,47.8-185.2,77.6c30.1-46.8,57.3-80.2,85.2-112.4c30.8-35.9,61.6-70.5,86.9-117.8
				c4.3-8,8-15.7,11.5-23.5c3.8-8.9,6.3-16.2,8.5-23.3c4.2-14.1,6.5-26.1,7.8-36.7c2.5-21.2,1.5-37.5,0.1-51.5
				c-1.5-14-3.4-25.7-5.1-34.1c-1.6-8.3-3.3-13.2-3.3-13.2c-29.4,30.4-49.5,56.6-73.3,80.8c-11.7,12.2-23.2,23.8-35.1,34.6
				c-12.4,11.8-25.3,25.3-37.9,40.8c-25.3,31-34.2,64.6-38.3,95.7c-3.9,31-3,59.6-4.4,76.7c-1.3,15-3.4,40.1-6.6,61.4
				c-1.4,10.2-2.9,19.4-4.2,26.5c-31.8,16-63,33.2-93.4,51.8c-25.1,15.1-49.5,31.4-73.5,48.4c25.4-117.2,82.8-169.3,127.3-265.1
				c31.3-66.7,35.2-113.7,31.1-145.7c-4-31.7-16.5-47.8-16.5-47.8c-38.9,75.7-93.8,102.6-144.2,178.6
				c-49.8,76.3-25.8,159.9-20.2,195.3c3.7,23,11.9,66.7,16.1,89c-48.7,35-94.6,73.9-137,116.4c-6-50.3,5.4-94.3,18.3-135.6
				c14.8-48.3,35.6-96.1,38-162.8c3.2-81.2-18.3-130.5-38.6-157c-20.5-26.8-40.1-32.7-40.1-32.7c5.2,43.7-2.4,78.7-13,113.1
				c-5.6,17-11.7,35.5-17.5,52.8c-6.2,18.5-11.4,38.6-17.2,56.9c-11.8,40.6-10,80.7-2.5,116.2c7.4,35.4,20.7,64.4,27.7,81.5
				c6.1,15.4,17.4,39.7,28.2,58.6c3.4,6.1,6.7,11.5,9.7,16.2C109,784.9,79.4,819,52.4,855.2c-11.5,15.6-22.5,31.5-33.1,47.8
				c1.8-33.7,1.3-63.5,0.7-91.5c-1.2-37-2.5-70.7-5.1-103.7c-2.5-32.9-5.9-65.8-11.7-98.4c-5.2-31-11-63.9-21.8-100.6
				c-14.3-48.8-34.4-87.7-56.3-115.4c-21.8-27.8-44.7-44.2-63.4-52.9c-19.1-8.6-33.7-10.1-43.5-9.6c-9.7,0.4-14.4,2.3-14.4,2.3
				c39.5,35.1,52.5,77.9,58.8,119c6.4,41.9,5.8,84.8,13.4,140.4c8.3,58.2,29.5,98.3,48.9,134.6c19.6,35.6,39.5,65.3,49,84.9
				c8.6,17.3,21.9,46.5,30.2,73.7c3.3,10.3,5.8,20.2,7.8,28.5c-24.9,39.3-46.9,80.5-64.9,123.5c-8.1,19.2-15.6,38.6-22.4,58.3
				c0-1.4,0-2.9,0-4.4c-0.5-29.7-2.3-58.1-6.3-86.5c-3.7-28.5-9.2-57.3-18.4-87.5c-9.1-30.2-21.4-62-40.8-95.5
				c-19.1-33.5-45.6-62.3-72.6-82.9c-27.5-21.1-55.4-34.9-81.5-44.4c-52.5-18.8-96.6-20.5-122.5-21.9c-23.3-1.5-60.4-0.6-89.1,5
				c-29.1,5.1-48.2,14.1-48.2,14.1c40.8-3.8,83.2,7.3,118.4,22.8c35.7,15.7,66.7,36.1,93.8,58.9c55.4,46.1,91.2,97.8,131.2,168.9
				c52.2,94.5,77.2,151.3,96.6,188.9c7.4,15.4,13.8,27.5,18.6,36.7c-5.5,24.2-9.8,48.8-12.3,73.9l0,0.1c-0.5,5.7,3.7,10.8,9.4,11.3
				c5.7,0.5,10.8-3.7,11.3-9.4l0.1-0.9c1.7-18.7,4.6-37.5,8.3-56.2c1.9-1.3,3.8-2.6,5.5-3.8c4-1.8,7.8-3.5,11.3-5.1
				c7.3-3.5,15.1-6.4,23.5-8.6c8.2-2.3,15.8-4.9,24.2-6.3c32.7-6.8,64.6-9,96.1-9.5c63-1.1,124.6,4,199.8-1.5
				c100.2-7.2,160.1-32.5,192.8-55.6c32.9-23.6,39.5-43.6,39.5-43.6c-111.1,19.1-177.5-15.4-295.3-20.4
				c-118.6-6-206.5,58.8-241.8,85.6c-14.1,10-34.7,26.9-50.1,43.3c9.6-39.6,22.9-78.6,38.6-116.1c3.4-8.1,6.9-16.2,10.5-24.2
				c14.9-15.4,34.2-26.8,55.1-33.3c31.8-10.6,65.3-12.8,98.3-11.2c33.7,1.4,65,6.8,104.9,10.4c35.3,3,71.5,6.7,112.8,8.9
				c110,6.9,182.4-10.8,221-31.9c19.6-10.4,31.4-20.8,38.4-28.6c7-7.7,9.2-12.6,9.2-12.6c-61.5,7.7-110.5-2.1-158.9-14.6
				c-48.6-12.6-97.3-29.3-164-38.7c-16.7-2.3-33.2-3.4-49-3.2c-8.4,0.1-14.8,0.2-21.4,0.6c-7.2,0.3-14.1,0.8-21.4,1.4
				c-28.9,2.5-57,8.5-81.6,16.7c-49.8,16.7-84,42.9-102.2,59c-0.6,0.5-1.2,1-1.8,1.5c16-27.4,33.4-54,52.1-79.6
				c18.3-24.9,37.9-48.8,58.4-71.9c58.5-17.6,114.2-12.7,164.9-4.2c60.6,10.2,118.2,28.3,195.5,34.1c44.4,3.4,86.5,4.6,120-0.7
				c33.9-5,60-15.1,77.7-26.6c17.8-11.6,27.1-23.6,31.5-32.4c4.4-8.8,4.8-13.8,4.8-13.8c-24,9-48.4,9.3-70.7,6.2
				c-22.4-3.1-43.1-9.4-64-16.7c-20.9-7.3-41.7-15.8-65.6-23.6c-11.6-4-25.9-7.4-37.6-10.8c-11.8-3.3-24.7-6.6-38.5-9.7
				c-55.1-12.8-107.9-9-151.4,2c-43.6,10.7-76.8,28.6-96.4,38.6c-9.5,4.5-21.7,11.3-34.1,18.9c47.6-48.1,99.9-91.6,155.6-130.1
				c21.8-11.3,49.8-13.5,75.5-9.8c31.2,4.7,60.1,15.7,87.7,29.4c13.8,6.7,27.4,14.3,41.6,22.1l22.7,12.2c7.6,3.8,15.2,7.7,22.7,11.4
				c30.3,15,63.2,30.2,102.6,42.3c52.3,16.3,99.8,19.6,137.3,14.5c37.8-5.1,64.8-18.9,82-31.6c8.6-7,15-13.6,19.7-19.4
				c4.6-6.3,7.6-11.9,9.7-16.4c4.1-9,4.4-14.1,4.4-14.1c-50.9,22-97.3,13.6-137.1-2.2c-40.7-16.1-77.6-39.8-128.8-65.8
				c-25.4-13-52.3-22.7-76-28.6c-23.5-6.3-50-11.2-73.4-12.3c-42-2.5-76.8,4.6-99.4,10.6c50.1-28.8,102.1-54.3,155.5-76.9
				c45.7,2.7,82.3,23.5,114.3,47.1c37.7,28,78.2,64.9,138.5,88c40.2,15.5,75.5,19.4,103.3,17.5c27.9-1.9,48.5-9.3,63.4-17.3
				c13.3-7.4,21.8-15.3,27.5-21.8c7.1,2.7,14.2,4.8,21.1,6.2c26.5,5.6,48.3,1.7,62.8-5.2c14.7-6.8,22.8-15.9,27.5-22.8
				c4.7-6.9,6-11.5,6-11.5c-34.4,1.1-57.4-18.4-72.3-40.4c-15.2-22.2-26.5-49.6-48.1-78.9c-18.3-27.4-50.4-47.2-80.8-56
				c-14-4.3-27.6-6.4-39.8-7.5c34.2-7.7,68.5-14.6,103-20.8c38.1,10.5,63.7,35.3,85.8,61.7c24.9,29.1,47.5,63.8,92.9,92.4
				c30.2,18.6,59.6,26.5,83.1,26.3c23.5,0.9,41.5-6.1,54.2-12.8c25.5-15.4,32.3-33.5,32.3-33.5c-32.9-2.1-56.5-17.5-74.9-36
				c-18.7-19-31.9-41.4-52.2-64.9c-20-23.5-48.3-36.2-77.1-42.6c-19.3-4.4-38-5.3-52.8-5.5c7.9-1.1,15.8-2.3,23.7-3.4
				c38.2-1.8,72.4,2,105.3,7.5c52.1,8.8,101.4,22.3,163.7,27.6c82.7,7.2,138.6-9.4,169.3-31.9c15.2-11.2,23.4-22.8,26.1-31.8
				C1572.4,311.7,1571.6,307.1,1571.6,307.1z M915.9,559.1C886.6,541,860.7,519,827,495.4c-16.9-11.9-34.2-20.4-51.9-26.7
				c-18-6.5-37.1-10.9-55.3-13c-25.2-3.1-47.9-1.5-65.5,0.7c0.5-0.6,1-1.2,1.5-1.7c31.9-11.4,64.2-22,96.6-31.9
				c13.9-4.1,27.9-8,41.9-11.9c10.8,2.5,21.4,7.4,30.6,13.6c16.4,10.8,29.7,25,41.7,40.2c12.1,15.3,22.8,31.7,35.6,49
				c6.6,8.8,13.1,17.5,22.1,27.2c8.8,9.5,16.3,17,26.3,25.7c7.5,6.6,15.2,12.5,23.1,17.8C952.3,579,933.4,569.9,915.9,559.1z"/>
			<path style="clip-path:url(#SVGID_00000183943345901526987690000004649022119795752868_);fill:#D0D0D0;" d="M892,821.1
				c-8.7,8-21.7,11.6-33.3,13.1c-11.7,1.7-23.3,1.5-34.9,0.9c-23.4-1.2-47.4-4.3-77.7-2.3c-61,3.9-98.9,48-115.6,64.5
				c-7.6,7.6-19.6,19.8-29.3,30.6c-2.2,2.5-4.3,4.8-6.3,7c12-28,29-46.3,47-62c19.7-17.5,41.5-31.8,62.7-59.1
				c14.1-18.3,22-38.4,23.8-55.4c2.1-17-1.9-30.5-6.8-39.2c-4.6-8.8-11.3-13.6-15.4-16.3c-4.4-2.7-7.3-3.4-7.3-3.4
				c2.2,22.2-8.4,38.4-21.3,49.6c-13.2,11.6-29,19.8-46.9,34.4c-18,14.5-27.9,34.6-33,53.6c-5.1,19.1-5.1,36.8-5.9,47
				c-0.6,9.2-1.1,23.9-0.9,36.3c0.2,6.9,0.4,13.1,0.5,17.2c-32,15.1-63.5,31.3-94.4,48.5c8.9-21,20-36.5,31.9-51.5
				c14.6-18.8,30.7-37.4,40.9-65.8c13-38.5,3.1-65.7-7.8-78.8c-11.2-13.6-22.9-16.4-22.9-16.4c1.2,19.3-6.1,34.1-15.6,46.9
				c-9.6,12.9-21.2,23.9-32.1,38.9c-11,14.9-13.2,32-12.7,48.7c0.5,16.5,4,32.2,5.1,41.3c1.3,10,3.7,28.7,5.3,41.2
				c-5.3,3-10.6,6-15.9,9.1c-7.7,3-16.7,7.4-23.2,12.2c-3,2.3-5.5,4.4-7.5,6.4c-6.1,3.8-12.2,7.6-18.2,11.5
				c-13.4,8.8-26.6,17.9-39.8,27.3c9.1-17,18-30.2,27.7-42.8c6.9-9.1,14-17.9,20.6-27.2c6.7-9.7,12.7-18.3,18.8-32.5
				c6.9-17.2,8.2-28.9,8.1-38.8c-0.2-9.7-2-17.4-3.7-24.7c-1.7-6.7-3.3-13.4-4.5-18.5c-1.2-4.8-2.2-7.7-2.2-7.7
				c-15.3,14.2-26.3,26.4-39,38.3c-5.9,5.8-12.4,12.2-18.5,18.2c-3.1,3.2-6.1,6.2-8.8,9c-2.8,2.8-5.6,5.6-8.8,9.9
				c-12.1,15.5-13.8,32.6-12.6,48.5c1.3,15.8,5.3,30.7,6.6,39.6c1.2,7.9,2.9,21,3.6,32.6c0.1,1.7,0.2,3.4,0.3,5
				c-33.4,24.4-65.5,50.6-95.6,79c9.4-33,19.6-57.7,30.3-81.7c11.8-26.7,23.8-52.7,30.3-85.2c1.1-5.5,1.9-10.7,2.6-15.9
				c0.6-5.9,0.8-10.7,0.8-15.3c0-9.1-0.8-16.6-2-23.1c-2.3-13-5.8-22.4-9.2-30.5c-3.4-8-6.6-14.6-9.1-19.3c-2.4-4.6-4.3-7.2-4.3-7.2
				c-11.9,23.2-19.2,42.3-28.9,60.9c-4.7,9.3-9.5,18.2-14.6,26.7c-5.2,9.2-10.4,19.5-15.1,30.9c-9.4,22.9-8.6,44.3-5.5,63.4
				c3.3,19,8.9,35.8,11.1,46.1c1.9,9.1,5.2,24.3,7.1,37.5c1,6.3,1.7,12,2.3,16.4c-15.9,15.2-31.3,30.9-45.9,47.4
				c-12.1,13.4-23.7,27.4-34.8,41.8c-6-73.8,18.7-114.9,27.9-179.5c6.6-45,0.5-73.5-7.7-91.7c-8-18.1-18.3-25.3-18.3-25.3
				c-9.5,51.7-37.1,77.5-53.3,131.4c-15.8,54,13.4,99.1,23,119.1c6.3,12.9,19,37.3,25.5,49.7c-22.5,29.4-42.7,60.6-60.2,93.4
				c-12.5-28.7-13.7-56.7-13.4-83.4c0.1-31.2,3.8-63.2-6.7-103.1c-12.6-48.6-34.2-73.9-50.9-85.9c-16.9-12.2-29.5-12.2-29.5-12.2
				c10.9,24.9,12.7,47,12.6,69.2c-0.3,11.1-0.6,23.1-0.9,34.3c-0.3,12.1,0.2,24.9,0,36.7c0.3,26.1,8.5,49.5,19.3,69.1
				c10.7,19.6,23.8,34.4,31,43.2c6.4,8,17.4,20.3,27.2,29.6c3.1,3,6,5.6,8.6,7.9c-12.9,24.7-24.3,50.1-33.7,76.3
				c-4,11.3-7.7,22.7-11,34.2c-5-20.2-10.6-37.8-15.9-54.2c-7.3-21.6-14.1-41.4-21.6-60.4c-7.3-19-15.2-37.8-24.5-56.1
				c-8.6-17.4-17.9-35.8-30.9-55.6c-17.2-26.3-36-45.7-53.9-58.2c-17.9-12.5-34.3-18.1-46.9-19.9c-12.8-1.7-21.7,0-27.4,2.1
				c-5.6,2-8.1,3.9-8.1,3.9c29.7,13.7,45,36.7,56.1,59.8c11.3,23.6,18.6,49.1,33,80.6c15.3,32.9,35,52.9,53,70.8
				c18,17.6,35,31.5,44.2,41.4c8.2,8.7,21.3,23.6,31,38.2c3.8,5.5,7.1,10.9,9.7,15.5c-7.7,27.7-13.3,56-16.3,84.6
				c-1.4,12.8-2.3,25.6-2.8,38.4c-0.3-0.9-0.5-1.7-0.8-2.6c-5.6-17.5-11.7-34-19.2-50c-7.3-16.2-15.7-32.2-26.5-48.4
				c-10.8-16.2-23.7-32.8-41.2-49.2c-17.3-16.4-38.1-28.7-57.7-36c-20-7.5-39-10.7-56.1-11.7c-34.4-1.8-60.8,5.1-76.4,9
				c-14,3.3-35.8,10.5-51.8,18.9c-16.3,8.2-25.9,17-25.9,17c23.4-9.6,50.5-10.6,74.1-7.7c23.9,2.9,45.9,9.4,66,18
				c41,17.3,71.4,41.5,107.8,76.4c47.8,46.5,72.7,75.6,90.9,94.4c7.1,7.8,13.1,13.8,17.6,18.3c1,15.3,2.9,30.6,6,45.9l0,0
				c0.7,3.5,4.1,5.7,7.6,5c3.5-0.7,5.7-4.1,5-7.6l-0.1-0.6c-2.3-11.4-4-23-5.1-34.7c0.9-1.1,1.8-2.2,2.6-3.2c2-1.8,4-3.5,5.8-5
				c3.7-3.4,7.8-6.5,12.3-9.3c4.4-2.8,8.5-5.7,13.2-8.1c18.1-9.9,36.6-16.9,55.1-22.8c37.1-11.9,74.4-19.9,117.8-36.6
				c58-22.2,88.8-47.9,104.1-67.4c15.2-19.9,15.6-32.9,15.6-32.9c-62.3,31.2-107.7,22.6-178.2,40.7
				c-71.2,17.7-111.6,71.7-127.6,93.9c-6.5,8.4-15.7,22.1-21.9,34.6c-1.4-25.1-0.5-50.6,2-75.5c0.5-5.4,1.2-10.8,1.9-16.2
				c6.1-11.8,15.4-22,26.6-29.6c16.9-12,36.3-19.2,56.1-24.2c20.2-5.2,39.6-7.6,63.9-12.6c21.4-4.6,43.5-8.8,68.3-14.9
				c66.3-15.6,105.9-39,124.9-58.4c9.7-9.7,14.8-17.9,17.6-23.8c2.7-5.8,3.1-9.1,3.1-9.1c-35,15.6-65.7,18.5-96.5,19.8
				c-31,1.3-62.7,0.1-103.9,6.4c-10.3,1.6-20.2,4-29.5,6.9c-4.9,1.5-8.7,2.8-12.5,4.2c-4.2,1.5-8.2,3-12.4,4.7
				c-16.6,6.7-32.2,15.2-45.2,24.5c-26.4,18.8-42,40.4-49.9,53.2c-0.3,0.4-0.5,0.8-0.8,1.2c4.6-19.1,10.1-37.9,16.5-56.4
				c6.3-18,13.7-35.6,21.7-53c31.5-20.9,65.2-27.9,96.8-32c37.6-4.8,74.9-4.4,121.7-14.8c26.8-6,51.9-12.7,70.8-21.9
				c19.2-9,32.8-19.6,41.2-29.6c8.5-10.1,11.8-18.8,12.8-24.8c1-6,0.3-9,0.3-9c-12.6,9.6-27,14.2-40.7,16.3
				c-13.8,2.2-27.2,2.2-40.8,1.6c-13.6-0.6-27.5-1.9-43-2.2c-7.6-0.3-16.6,0.3-24.1,0.4c-7.6,0.2-15.8,0.5-24.5,1.1
				c-34.9,2.3-65.4,14-89.2,28.2c-23.8,14.1-40.3,30.7-50.1,40.1c-4.8,4.4-10.8,10.5-16.8,17.3c19.5-36.9,42.7-72,68.7-104.8
				c10.9-10.5,27-16.9,42.9-19.3c19.3-2.8,38.3-1.5,57.1,1.7c9.4,1.5,18.8,3.6,28.6,5.6l15.6,3.2c5.2,0.9,10.4,1.8,15.5,2.7
				c20.6,3.4,42.8,6.5,68.2,6.7c33.8,0.3,62.5-6.3,83.8-16c21.4-9.8,35-22.8,42.9-33.4c3.8-5.7,6.4-10.7,8.2-15
				c1.6-4.6,2.4-8.4,2.8-11.4c0.8-6.1,0.1-9.1,0.1-9.1c-26.2,22.1-55.1,25.4-81.4,23.2c-26.9-2.2-53-9.6-87.9-15.9
				c-17.3-3.2-35-4.1-50.1-3.3c-15,0.5-31.6,2.3-45.6,5.8c-25.3,6-44.6,16.5-56.9,24.1c24.5-26,50.7-50.4,78.2-73.3
				c27.5-6.6,52.9-0.8,76,7.4c27.3,9.8,57.8,24.4,97.6,27.2c26.5,2,48.1-2.1,64.2-8.1c16.2-6.1,27-14.2,34.4-21.6
				c6.5-6.7,10.2-12.9,12.4-17.8c4.7,0.3,9.2,0.3,13.6-0.1c16.7-1.4,28.9-7.7,36.2-14.3c7.4-6.7,10.6-13.5,12.2-18.4
				c1.5-4.9,1.5-7.9,1.5-7.9c-20.2,6.8-37.2-0.6-50-10.9c-13-10.4-24.5-24.6-42.6-38c-15.7-12.9-38.2-18.9-57.8-18.7
				c-9.1,0-17.5,1.1-24.9,2.7c18.8-10.7,37.9-20.9,57.2-30.8c24.4-0.6,44,9.5,61.7,21.1c19.9,12.8,39.5,29.2,71.4,38
				c21.2,5.6,39.9,5,53.9,0.7c14-3.7,23.5-11,29.7-17.3c12.3-13.7,13.1-25.6,13.1-25.6c-19.8,4.7-36.5-0.2-50.7-7.9
				c-14.5-7.9-26.3-18.8-42.4-29c-16-10.3-35-12.7-53.2-11.4c-12.2,0.9-23.4,3.7-32.2,6.2c4.5-2.1,8.9-4.2,13.4-6.3
				c22.3-7.9,43.1-11.8,63.6-14.4c32.4-4.1,63.9-4.9,101.7-13c50.2-10.5,80.3-30.3,94.4-49.2c7-9.3,9.8-17.7,9.7-23.4
				C893.3,823.7,892,821.1,892,821.1z M549.4,1087.4c-20.5-5.5-39.8-13.8-64-21.7c-12.1-4-23.8-5.9-35.5-6.5
				c-11.8-0.6-23.9,0.2-35,2.2c-15.4,2.7-28.6,7.7-38.6,12.2c0.2-0.4,0.4-0.9,0.6-1.3c16.8-12.5,34-24.5,51.4-36.1
				c7.5-4.9,15.1-9.7,22.7-14.5c6.8-0.4,14,0.6,20.5,2.5c11.6,3.4,22,9.5,31.8,16.3c9.9,6.9,19.2,14.6,29.8,22.6
				c5.5,4,10.9,8,17.9,12.1c6.9,4.1,12.7,7.1,20.1,10.5c5.6,2.6,11.2,4.7,16.8,6.4C574.5,1092.6,561.7,1090.6,549.4,1087.4z"/>
			<path style="clip-path:url(#SVGID_00000183943345901526987690000004649022119795752868_);fill:#D0D0D0;" d="M801,383.3
				c-8.9-2.2-16.8-9-22.7-15.8c-6.1-6.9-11-14.4-15.6-22.2c-9.3-15.6-17.6-32.5-31.9-51.2c-28.7-37.7-73.5-43.3-91.3-46.9
				c-8.1-1.6-21.2-4.1-32.3-5.7c-2.5-0.4-5-0.7-7.2-1c23.3-4.3,42.3-1.1,60.2,3.7c19.8,5.2,38.4,13.1,65.1,15.1
				c17.9,1.2,34.2-2.3,46-8.4c11.9-5.9,18.9-14.3,22.4-21.2c3.7-6.8,3.9-13.1,3.9-17c-0.2-4-1-6.1-1-6.1
				c-13.4,11-28.4,11.1-41.2,7.6c-13.1-3.5-25.3-10.2-42.4-15.5c-17.1-5.4-34.3-3.2-48.7,1.8c-14.5,4.9-26,12.5-32.9,16.4
				c-6.2,3.5-15.9,9.6-23.8,15c-4.4,3.1-8.3,5.9-10.9,7.7c-23.5-14.2-47.5-27.6-71.9-40.1c17.4-3.3,32.2-2.7,46.9-1.6
				c18.4,1.4,37.3,3.7,60-1.9c30.4-8.1,43.7-26.2,47.6-38.9c4-13.1,0.7-21.8,0.7-21.8c-11.9,9.1-24.7,10.7-36.9,10.1
				c-12.4-0.6-24.5-3.4-38.9-4c-14.4-0.7-26.3,5.2-36.8,12.7c-10.4,7.4-19,16.4-24.4,21c-5.9,5.1-17,14.7-24.3,21.1
				c-4.2-2.1-8.5-4.2-12.7-6.3c-5.2-3.7-11.9-7.6-17.8-9.7c-2.8-0.9-5.2-1.6-7.4-2.1c-5.1-2.3-10.1-4.6-15.2-6.8
				c-11.4-4.9-23-9.5-34.7-13.9c14.9-1.4,27.2-1.4,39.5-0.5c8.8,0.6,17.5,1.3,26.4,1.6c9.2,0.2,17.3,0.4,29-1.9
				c14.1-2.9,22.2-7.2,28.5-11.4c6.2-4.3,10.4-8.8,14.4-13c3.6-4,7.2-7.9,10-10.9c2.6-2.8,4-4.7,4-4.7c-15.8-3.8-28.3-5.6-41.5-8.7
				c-6.3-1.3-13.2-2.8-19.7-4.1c-3.4-0.6-6.6-1.3-9.6-1.8c-3-0.6-6-1.2-10.2-1.4c-15.2-1.2-27,5.1-36.7,12.7
				c-9.7,7.6-17.5,16.6-22.8,21.3c-4.6,4.1-12.3,10.9-19.5,16.3c-1.1,0.8-2.1,1.6-3.1,2.3c-30.1-11.1-60.8-20.5-92-27.8
				c25.4-8.1,45.6-12.1,65.7-15.6c22.3-3.9,44.2-7.3,68-17c4-1.6,7.7-3.4,11.4-5.2c4.1-2.1,7.3-4.1,10.2-6
				c5.9-3.9,10.3-7.7,14.1-11.2c7.4-7.1,12-13.4,15.7-19c3.7-5.6,6.6-10.6,8.5-14.1c1.9-3.6,2.8-5.9,2.8-5.9
				c-20.1,2.3-35.5,5.8-51.7,7.5c-8,1-15.8,1.7-23.5,2.1c-8.1,0.6-17,1.6-26.4,3.5C403.5,48.1,390,57.8,379,68
				c-10.9,10.3-19.3,21.1-25,27c-5,5.2-13.5,13.8-21.1,20.7c-3.6,3.3-7,6.3-9.6,8.5c-16.6-3.8-33.4-6.9-50.3-9.3
				c-13.9-2.1-27.9-3.5-41.9-4.5c45.1-35.6,82.2-37.3,127.8-59.1c31.9-15.1,47.6-31.3,55.9-44.3c8.2-12.9,8.5-22.7,8.5-22.7
				C385.8,0.4,357.3-6.4,315.5,6.3c-41.6,13-58.2,51.2-67,66c-5.6,9.6-15.9,28.3-21.2,37.8c-28.7-1.9-57.5-1.5-86.1,1.3
				C154.4,91,172,78.2,189.3,66.9c20.2-13.3,42.4-24.7,63.7-48.6c25.9-29,33-53.8,33.6-69.8c0.6-16.1-4.8-24.3-4.8-24.3
				c-11.4,17.7-24.9,28.4-39.3,37.8c-7.3,4.6-15.1,9.5-22.5,14.2c-7.9,5-16,10.8-23.7,15.8C179.5,3.4,168,18.8,159.9,34.1
				c-8.1,15.3-12,30.1-14.6,38.6c-2.5,7.5-5.7,20-7.4,30.3c-0.6,3.3-1,6.3-1.4,8.9c-21.4,2.3-42.8,5.8-63.8,11
				c-9,2.3-17.9,4.8-26.8,7.6c10.9-11.9,19.8-23.1,28.1-33.6c10.8-14,20.6-26.9,29.7-39.9c9.1-12.9,17.9-26.1,25.7-39.9
				c7.5-13,15.4-27,22.6-43.8c9.6-22.4,14-42.9,14.4-59.8c0.4-16.9-3.1-30-7.3-38.9c-4.4-9-9.3-14-13.1-16.8c-3.7-2.8-6-3.5-6-3.5
				c3.9,25-4.4,44.8-14.5,61.9c-10.4,17.4-23.7,33.1-37.8,55.9c-14.6,24-19.1,45.3-23,64.6C61.1,56,59.4,73,57,83.1
				c-2.1,9-6.1,23.8-11.3,36.4c-1.9,4.8-4,9.2-5.8,12.9c-21.2,7-41.8,15.5-61.6,25.8c-8.8,4.6-17.5,9.5-26,14.7
				c0.4-0.5,0.9-1.1,1.3-1.6c8.9-11.1,16.9-22.2,24-33.9c7.3-11.7,14-24,19.9-37.9c5.9-13.9,11-29.4,14-47.7
				c3.1-18.2,2.1-36.9-1.5-52.8C6.2-17.1,0.1-30.7-6.7-42.2c-13.6-22.9-29.4-37-38.6-45.4c-8.1-7.6-22.1-18.6-34.5-25.3
				c-12.3-7-22.1-9.5-22.1-9.5c16.2,11,28.5,28,36.8,44.5c8.4,16.7,13.6,33.7,16.7,50.4c6.4,33.9,3.9,63.9-3,102.4
				c-9.5,50.8-17.6,79.4-21.9,99.2c-1.9,7.9-3.3,14.4-4.3,19.2c-9.4,7.2-18.5,15-27.1,23.6l0,0c-1.9,2-1.9,5.1,0,7
				c2,1.9,5.1,1.9,7,0l0.3-0.3c6.3-6.4,13.1-12.4,20.2-18.2c1.1,0.1,2.2,0.2,3.2,0.3c2,0.6,3.9,1.1,5.7,1.6c3.8,0.9,7.5,2.2,11.3,4
				c3.7,1.7,7.3,3,10.9,5.1c14.2,7.4,26.6,16.4,38.4,25.7c23.6,18.8,44.8,39.4,74.3,60.3c39.2,27.9,69.1,36.8,88.2,38.2
				c19.4,1.3,27.9-4.1,27.9-4.1C136,309.7,122,276.7,80,239c-42-38.4-94.2-41.2-115.4-42c-8.2-0.6-21-0.6-31.7,0.7
				c15.6-11.7,32.4-22.1,49.6-31.1c3.7-2,7.5-3.9,11.3-5.8c10.2-1.2,20.8,0.5,30.5,4.5c15,5.8,28,15.2,39.7,25.8
				c12,10.8,21.9,22.3,35.6,35.8c12.1,11.8,24.4,24.3,39,37.7c38.5,36.1,70.7,51.6,91.4,55.5c10.4,2.1,17.9,1.9,22.9,1.1
				c4.9-0.7,7.2-1.9,7.2-1.9c-25.1-15.9-40.2-34.4-54.3-53.8c-14.1-19.5-27-40.5-48.8-64.3c-5.5-5.9-11.2-11.3-17.1-16.1
				c-3.1-2.5-5.5-4.4-8.1-6.3c-2.7-2.1-5.5-4-8.4-6c-11.4-7.9-23.6-14.3-35.2-18.7c-23.5-9-44.1-9.7-55.7-9.4c-0.3,0-0.8,0-1.1,0
				c14.3-5.2,28.8-9.8,43.5-13.6c14.3-3.6,28.9-6.5,43.5-8.8c27,11.4,46,30.1,62.2,48.7c19.3,22.2,35,46.5,61.8,72.2
				c15.4,14.8,30.5,28,44.5,36.3c14,8.5,26.8,12.7,36.8,13.9c10.1,1.1,17.2-0.5,21.5-2.4c4.3-1.9,6-3.7,6-3.7
				c-11.6-4-20.7-11.3-28-19.2c-7.3-8-13.1-16.6-18.5-25.6c-5.5-9.1-10.6-18.5-17-28.7c-3.1-5-7.3-10.6-10.6-15.4
				c-3.4-4.8-7.1-10-11.3-15.3c-16.5-21.5-37.1-36.2-56.5-45.4c-19.4-9.3-37.1-12.8-47.4-15.1c-4.9-1.2-11.4-2.4-18.4-3.4
				c32.2-3.3,64.8-3.4,97.2-0.7c11.5,2.5,22.5,10.2,30.9,19.4c10.1,11.2,17.4,24.1,23.4,37.6c3.1,6.7,5.8,13.7,8.6,20.8l4.7,11.4
				c1.7,3.7,3.3,7.5,4.9,11.1c6.6,14.8,14.2,30.4,25,46.9c14.3,21.9,30.9,37.7,46.3,47.2c15.5,9.6,29.7,12.8,39.9,13.3
				c5.3,0,9.7-0.5,13.2-1.1c3.6-0.9,6.4-2.1,8.6-3.1c4.2-2.1,5.9-3.9,5.9-3.9c-25.5-7.4-40.1-24.6-50-42.6
				c-10.1-18.3-16.6-38.3-27.5-63.6c-5.4-12.5-12.4-24.3-19.4-33.7c-6.8-9.5-15.1-19.4-23.4-26.9c-14.8-13.7-29.8-21.7-40-26.4
				c27.3,4.6,54.3,11.1,80.9,19c16.1,14.9,23.3,33.8,27.9,52.2c5.4,21.8,9.1,47.8,24.4,74.7c10.1,18,22,30.2,32.8,37.9
				c10.9,7.8,20.8,11.4,28.7,12.9c7.2,1.3,12.7,1,16.8,0.3c1.8,3.2,3.8,6.1,5.9,8.7c8.1,10.1,17.4,15.3,24.8,17.2
				c7.5,1.9,13.3,1.1,17.1-0.1c3.8-1.1,5.7-2.4,5.7-2.4c-13-10.1-15.6-24.3-14.4-36.9c1.1-12.9,5.3-26.4,6.3-43.8
				c1.6-15.7-4.2-32.8-12.8-45.3c-3.9-5.9-8.2-10.8-12.4-14.9c15,7.6,29.8,15.5,44.4,23.7c10.8,15.5,12.8,32.5,12.9,48.9
				c0.3,18.3-1.9,38,6.1,62.4c5.5,16.1,13.9,27.9,22.7,35c8.4,7.5,17.2,10.4,23.9,11.8c14.1,2.1,22.1-2.5,22.1-2.5
				c-11.5-10.8-15.5-23.7-16.7-36.1c-1.1-12.7,0.8-25,0.5-39.9c-0.2-14.8-6.8-28.1-15.5-39.2c-5.8-7.5-12.4-13.5-17.9-18.1
				c3.3,2,6.6,4,9.8,6c14.7,11,26.1,22.8,36.6,34.8c16.6,19.1,30.7,39.1,52.1,60.1c28.4,27.9,54.1,38.8,72.3,39.8
				c9,0.5,15.6-1.3,19.3-3.8C799.9,385.3,801,383.3,801,383.3z M481.9,276.7c-5.3-15.6-8.2-31.6-13.4-50.6
				c-2.6-9.5-6.4-17.9-11.1-25.7c-4.7-7.9-10.4-15.3-16.5-21.6c-8.4-8.8-17.2-15.1-24.4-19.7c0.4-0.1,0.7-0.1,1.1-0.2
				c15.3,5.5,30.4,11.4,45.4,17.7c6.4,2.7,12.8,5.5,19.1,8.4c3.2,4.2,5.7,9.3,7.2,14.3c2.8,9,3.4,18.3,3.2,27.5
				c-0.2,9.3-1.2,18.7-1.8,28.9c-0.2,5.3-0.5,10.4-0.1,16.8c0.3,6.2,0.9,11.3,1.9,17.5c0.8,4.7,1.8,9.2,3.1,13.6
				C489.3,295.1,485.1,286,481.9,276.7z"/>
			<path style="opacity:0.3;clip-path:url(#SVGID_00000183943345901526987690000004649022119795752868_);fill:#D0D0D0;" d="
				M2357.8,366.1c5.3,11.5,4.7,25.8,2.5,38.1c-2.1,12.5-6,24.2-10.4,35.8c-8.8,23.4-19.8,46.8-27.5,78.3
				c-15.8,63.3,16.7,116.2,28.1,138.5c5.2,10.2,13.8,26.3,21.6,39.7c1.8,3,3.5,5.9,5.1,8.6c-24.6-21.3-37.6-44.5-47.8-68
				c-11.4-25.7-18.9-52.6-39.8-83c-14.1-20.2-31.9-34.8-48.6-42.2c-16.6-7.7-31.7-8-42.1-5.8c-10.5,1.8-17.5,7.1-21.5,10.4
				c-4.1,3.6-5.8,6.3-5.8,6.3c23.3,5,36.3,21,43.5,37.7c7.5,17.2,10.7,35.9,19.8,58.8c8.9,23,26.1,39.6,43.8,50.9
				c17.8,11.4,35.8,17.2,45.9,21.2c9.1,3.6,24,8.9,36.6,12.7c7.1,2,13.4,3.8,17.7,5c5,37.4,11.2,74.7,18.7,111.7
				c-18.5-15.8-30.6-32.2-42-49.1c-14.3-21-28.1-43.3-53.6-62.9c-34.9-25.7-65.8-24.5-82.7-17.7c-17.5,7-24.1,18-24.1,18
				c20,5,32.7,17.3,42.6,31c10,13.9,17.5,29.3,29.2,45.3c11.6,16,28.2,23.8,45.4,28.6c17,4.8,34,6.3,43.7,8.2
				c10.6,1.9,30.4,5.6,43.6,8c1.3,6.4,2.7,12.7,4.1,19.1c0.6,8.8,2.1,19.3,4.9,27.6c1.4,3.8,2.7,7,4.1,9.7
				c1.9,7.4,3.7,14.9,5.8,22.3c4.6,16.5,9.6,32.9,14.8,49.3c-14.3-14.7-24.8-28.1-34.5-42.1c-7-10-13.6-20-21-29.8
				c-7.7-10-14.5-18.9-27-29.6c-15.3-12.6-26.8-17.7-36.8-20.8c-9.9-3-18.4-3.6-26.3-4.2c-7.4-0.5-14.7-1-20.2-1.4
				c-5.2-0.4-8.6-0.3-8.6-0.3c9.5,20.2,18.3,35.3,26.3,52.1c4,7.9,8.4,16.6,12.5,24.7c2.2,4.2,4.3,8.2,6.3,11.9
				c1.9,3.7,3.9,7.5,7.2,12.1c11.8,17.4,28.7,24.6,45.2,28.5c16.5,3.8,33,4.5,42.4,6.2c8.4,1.4,22.3,3.9,34.3,6.9
				c1.8,0.4,3.5,0.9,5.2,1.4c14,41.9,30.3,83,49.3,122.8c-30.5-20.3-52.3-38.6-73.3-57.3c-23.3-20.6-45.9-41.3-76.8-58.4
				c-5.2-2.9-10.3-5.4-15.4-7.8c-5.8-2.6-10.6-4.3-15.3-5.8c-9.2-2.9-17.1-4.5-24.1-5.5c-13.9-1.9-24.7-1.3-34-0.6
				c-9.2,0.8-17,2-22.5,3c-5.5,1-8.7,2.1-8.7,2.1c19.7,19.7,36.8,33.2,52.5,49.1c7.9,7.8,15.5,15.5,22.5,23.5
				c7.6,8.3,16.4,16.9,26.5,25.4c20.2,17,42.3,23.2,62.7,26.2c20.4,2.9,39.3,2.6,50.5,3.6c9.9,1,26.4,2.6,40.4,4.9
				c6.7,1,12.8,2.1,17.4,3c10.3,21.1,21.3,41.8,33.3,62.1c9.7,16.7,20.2,33,31.2,48.9c-77-17.9-110.8-56.2-173.5-86.5
				c-43.6-21.3-74.6-24.3-95.7-21.9c-21,2.3-31.7,10.4-31.7,10.4c49.5,26.4,66.7,62.8,116.4,96.8c49.8,33.6,105.2,18.5,128.6,15.2
				c15.2-2.2,44.1-7.2,58.8-9.8c22.6,32.4,47.8,63.1,75.4,91.5c-33.2,3.4-62.1-4.5-89.2-13.4c-31.7-10.2-63-24.4-107-26.7
				c-53.5-2.9-86.2,10.8-103.9,23.9c-17.8,13.3-21.9,26.1-21.9,26.1c28.9-3,51.9,2.3,74.4,9.7c11.1,3.9,23.3,8.1,34.6,12
				c12.2,4.3,25.4,7.9,37.3,11.9c26.7,8.2,53.1,7.4,76.6,2.8c23.4-4.5,42.7-13,54-17.5c10.2-3.9,26.3-11.1,38.9-18
				c4-2.2,7.7-4.3,10.8-6.2c20.9,21.1,43.1,40.9,66.7,59.1c10.2,7.7,20.6,15.1,31.2,22.3c-22.2-1.5-41.8-1.5-60.3-1.4
				c-24.4,0.4-46.6,1-68.4,2.3c-21.7,1.3-43.4,3.2-65,6.7c-20.5,3.1-42.3,6.6-66.6,13.4c-32.3,8.9-58.2,21.8-76.6,36
				c-18.6,14.1-29.6,29-35.5,41.3c-5.8,12.5-7,22.1-6.8,28.6c0.2,6.4,1.4,9.5,1.4,9.5c23.5-25.7,51.9-33.8,79-37.6
				c27.7-3.8,55.9-3,92.7-7.4c38.4-4.9,65.1-18.5,89.2-30.9c23.7-12.6,43.4-25.4,56.5-31.5c11.5-5.5,30.8-14,48.9-19.2
				c6.8-2.1,13.3-3.7,18.9-4.9c25.7,16.8,52.6,31.7,80.7,44c12.6,5.5,25.3,10.6,38.2,15.3c-1,0-1.9,0-2.9,0
				c-19.6,0.1-38.4,0.9-57.1,3.3c-18.9,2.2-37.9,5.5-57.8,11.3c-20,5.7-41.1,13.5-63.4,26c-22.3,12.3-41.5,29.5-55.4,47
				c-14.2,17.9-23.6,36.2-30.1,53.3c-12.9,34.4-14.5,63.5-15.6,80.6c-1.2,15.3-1,39.8,2.4,58.8c3.1,19.3,8.8,31.9,8.8,31.9
				c-2.1-26.9,5.6-54.8,16.2-77.9c10.7-23.4,24.4-43.6,39.7-61.3c30.9-36.1,65.3-59.1,112.6-84.8c62.8-33.5,100.5-49.4,125.5-61.8
				c10.2-4.7,18.3-8.8,24.3-11.9c15.9,3.9,32.1,6.9,48.6,8.8l0,0c3.8,0.4,7.1-2.3,7.5-6.1c0.4-3.8-2.3-7.1-6.1-7.5l-0.6-0.1
				c-12.3-1.3-24.7-3.4-36.9-6c-0.8-1.2-1.7-2.5-2.4-3.7c-1.1-2.7-2.2-5.2-3.3-7.5c-2.2-4.8-4.1-10-5.4-15.6
				c-1.4-5.4-3.1-10.5-3.9-16c-4.2-21.6-5.3-42.7-5.4-63.4c-0.1-41.6,3.9-82.1,1-131.7c-3.8-66.1-19.9-105.9-34.8-127.7
				c-15.3-21.9-28.4-26.5-28.4-26.5c11.5,73.4-11.9,116.9-16.4,194.5c-5.1,78.1,36.7,136.7,54.1,160.2c6.4,9.4,17.4,23.1,28,33.4
				c-26-6.7-51.6-15.8-76.2-26.6c-5.3-2.3-10.6-4.7-15.9-7.2c-10-10-17.3-22.8-21.4-36.6c-6.7-21.1-7.8-43.1-6.4-64.9
				c1.2-22.2,5.1-42.8,7.9-69.1c2.3-23.2,5.1-47,7-74.3c5.6-72.4-5.4-120.4-18.9-146c-6.7-13-13.4-20.9-18.5-25.6
				c-5-4.7-8.2-6.2-8.2-6.2c4.5,40.6-2.5,72.8-11.1,104.6c-8.8,31.9-20.3,63.8-27.1,107.7c-1.7,11-2.5,21.8-2.6,32.3
				c0,5.5,0,9.8,0.2,14.1c0.1,4.7,0.4,9.3,0.7,14.1c1.4,19.1,5,37.7,10.2,53.9c10.5,33,27.5,55.8,37.9,68c0.3,0.4,0.7,0.8,1,1.2
				c-17.9-10.8-35.3-22.6-52-35.1c-16.3-12.3-31.8-25.5-46.8-39.2c-11-38.8-7.3-75.4-1.1-108.8c7.3-39.8,19.8-77.6,24.4-128.5
				c2.6-29.2,3.9-56.9,0.7-79.1c-2.9-22.4-9.3-39.7-16.8-51.5c-7.5-11.9-15.3-18.1-21.1-21.1c-5.7-3-9.1-3.3-9.1-3.3
				c5.7,15.9,5.7,32,3.4,46.6c-2.3,14.7-6.6,28.4-11.6,42c-5,13.7-10.8,27.3-16.2,43c-2.7,7.6-5.1,17-7.5,24.7
				c-2.3,7.8-4.6,16.2-6.8,25.3c-9,36.2-7,71-0.2,99.8c6.6,28.8,18.1,50.9,24.5,63.9c2.9,6.3,7.2,14.4,12.1,22.7
				c-31.2-31.8-59.4-66.7-84.3-103.9c-7.2-14.5-8.4-32.9-5.7-49.9c3.4-20.5,10.9-39.4,20.2-57.5c4.6-9.1,9.7-18,15-27.2l8.3-14.8
				c2.6-5,5.2-10,7.8-14.9c10.2-19.8,20.5-41.4,28.9-67.2c11.3-34.3,13.9-65.6,10.9-90.4c-3-25-11.8-42.9-20-54.4
				c-4.6-5.7-8.8-10-12.6-13.2c-4.1-3.1-7.7-5.1-10.7-6.5c-5.9-2.8-9.3-3-9.3-3c14,33.8,8,64.3-2.8,90.3c-11,26.7-27,50.8-44.7,84.2
				c-8.8,16.6-15.5,34.2-19.6,49.8c-4.4,15.4-7.8,32.8-8.8,48.3c-2.1,27.7,2.3,50.7,6,65.6c-18.5-33.3-34.8-67.9-49.1-103.2
				c2.2-30.1,16.3-54,32.2-74.9c18.8-24.6,43.5-50.9,59.4-90.5c10.6-26.3,13.5-49.6,12.5-67.9c-1-18.4-5.6-32.1-10.8-41.9
				c-4.7-8.8-9.9-14.5-14.1-18.4c1.9-4.7,3.3-9.3,4.3-13.8c4-17.4,1.6-31.8-2.8-41.4c-4.4-9.7-10.3-15.2-14.8-18.3
				c-4.5-3.1-7.5-4.1-7.5-4.1c0.4,22.7-12.7,37.6-27.3,47.2c-14.8,9.8-32.9,17-52.5,30.9c-18.2,11.8-31.6,32.7-37.7,52.7
				c-3,9.2-4.5,18.1-5.3,26.2c-4.7-22.6-9-45.3-12.7-68.1c7.3-25,23.9-41.7,41.5-55.9c19.4-16.1,42.5-30.7,61.8-60.3
				c12.5-19.7,18-39,18.1-54.5c0.8-15.5-3.6-27.4-7.9-35.8c-9.9-17-21.7-21.6-21.7-21.6c-1.7,21.7-12.1,37.1-24.4,49
				c-12.7,12.1-27.6,20.6-43.3,33.7c-15.7,12.9-24.3,31.5-28.8,50.4c-3.1,12.7-3.9,25-4.1,34.8c-0.7-5.2-1.4-10.5-2-15.7
				c-0.8-25.2,2-47.7,6-69.3c6.3-34.2,15.7-66.6,19.8-107.7c5.6-54.4-4.8-91.5-19.4-111.9c-7.2-10.1-14.8-15.7-20.7-17.5
				C2360.9,365.6,2357.8,366.1,2357.8,366.1z M2517.6,800.8c-12.2,19.1-27,36-42.9,58c-8,11-13.8,22.3-18.1,34
				c-4.5,11.8-7.5,24.3-9.1,36.3c-2.3,16.5-1.4,31.5-0.2,43.2c-0.4-0.3-0.8-0.7-1.1-1c-7.2-21.2-13.9-42.5-20.1-64
				c-2.6-9.2-5-18.5-7.4-27.8c1.8-7.1,5.1-14,9.2-20.1c7.3-10.7,16.8-19.3,26.9-27.1c10.2-7.8,21.1-14.7,32.6-23
				c5.9-4.3,11.6-8.5,18.2-14.3c6.4-5.7,11.4-10.6,17.2-17.1c4.4-4.9,8.4-9.9,11.9-15C2531,777,2524.8,789.4,2517.6,800.8z"/>
			<g style="clip-path:url(#SVGID_00000183943345901526987690000004649022119795752868_);">
				<path class="st5" d="M809.1,1858.2c-16.7-47.9-9-99.8-1.6-149.9c1.6-11.1,3.3-22.6,4.7-33.8c6.8-55.1,4.7-129.1-44.6-168.7
					c-48.6-39.1-119.1-26.6-181.2-15.5c-5.4,1-10.8,1.9-16.1,2.8c-97.6,16.8-184.9,12.1-259.5-14.1c-88.2-31-159-95.1-189.3-171.6
					c-34.1-86-14.3-186.2,48.1-243.8c27.3-25.2,61.4-41.9,94.3-57.9c17.3-8.5,35.2-17.2,51.9-27.1c45.8-27.1,92.6-76,86.3-131.8
					c-3.2-28.5-19.6-53.5-35.5-77.6c-14.8-22.5-30.1-45.8-35.3-72.4c-13.9-71.3,52.4-137.8,123.1-155.3c54.1-13.4,110.8-7.1,165.6-1
					c16.3,1.8,33.1,3.7,49.6,5c91.6,7.3,158.9-10.4,200.1-52.7c36.3-37.3,53.8-95.5,51.7-172.9c-0.5-20.1-2.1-40.7-3.6-60.5
					c-3.2-41.6-6.5-84.6-0.3-126.6c16.3-111.1,99.9-214.2,223.7-275.6c111-55.1,235.2-72.5,355.2-89.3l0.6,4.1
					c-119.7,16.7-243.4,34.1-353.9,88.9C1020.3-78.3,937.6,23.6,921.5,133.4c-6.1,41.5-2.8,84.3,0.4,125.7
					c1.5,19.9,3.1,40.5,3.6,60.7c2,78.6-15.8,137.8-52.9,176c-42,43.2-110.5,61.3-203.4,53.9c-16.5-1.3-33.4-3.2-49.7-5
					c-54.5-6-110.8-12.3-164.1,0.9c-68.8,17-133.5,81.5-120,150.4c5,25.8,20.1,48.7,34.7,70.9c16.2,24.6,32.9,50,36.2,79.4
					c8.2,72.7-65.5,122.4-88.3,135.9c-16.8,10-34.8,18.8-52.2,27.2c-32.6,15.9-66.4,32.4-93.3,57.2c-61.2,56.4-80.5,154.8-47,239.2
					c29.9,75.4,99.7,138.6,186.8,169.2c74,26,160.6,30.7,257.4,14c5.3-0.9,10.7-1.9,16.1-2.8c63-11.2,134.4-23.9,184.5,16.4
					c50.7,40.8,53.1,116.3,46.1,172.5c-1.4,11.2-3.1,22.7-4.7,33.9c-7.3,49.6-14.9,100.9,1.4,147.9L809.1,1858.2z"/>
			</g>
			<g style="clip-path:url(#SVGID_00000183943345901526987690000004649022119795752868_);">
				<path class="st5" d="M2868.1,1832.6c-11.1,0-22.5-1.5-34.1-4.5c-46.3-12.1-89.8-47.5-110.7-90.2c-37-75.6-26.2-165.6-13.1-244.2
					l2-11.8c13-77.6,26.5-157.8,2.4-232c-29.4-90.7-108-153.2-184-213.5c-13.1-10.4-26.6-21.1-39.5-31.8
					c-66.7-54.8-174.3-165.1-146.5-287.6c12.4-54.5,49.2-98.4,84.8-140.8c23.5-28,47.8-56.9,65.2-88.8
					c47.8-87.8,42.8-207.8-12.7-305.7c-60.7-107.2-163.6-170.7-239.2-205c-100-45.4-207.2-67.5-308.5-86.2l0.8-4.1
					c101.5,18.7,209.1,40.8,309.5,86.5c76.2,34.6,179.8,98.6,241.1,206.8c56.2,99.1,61.1,220.7,12.7,309.8
					c-17.6,32.3-42,61.4-65.6,89.5c-36.9,44-71.8,85.5-84,139c-27.3,120.3,79.2,229.2,145.1,283.5c12.9,10.6,26.4,21.3,39.5,31.7
					c76.5,60.8,155.5,123.6,185.3,215.5c24.4,75.1,10.8,155.9-2.3,234l-2,11.8c-13,77.9-23.8,167.2,12.7,241.6
					c20.4,41.7,62.8,76.3,108,88c34.4,9,67.6,4,93.4-13.9l2.4,3.4C2912.7,1826.2,2891.2,1832.6,2868.1,1832.6z"/>
			</g>
		</g>
	</g>
	<g>
		<g>
			<defs>
				<rect id="SVGID_00000055699035216011264330000006391780660353225098_" width="2806.2" height="1603.6"/>
			</defs>
			<clipPath id="SVGID_00000080179288333090138540000001305665899805747646_">
				<use xlink:href="#SVGID_00000055699035216011264330000006391780660353225098_"  style="overflow:visible;"/>
			</clipPath>
		</g>
	</g>
</g>
</svg>
