<?xml version="1.0" encoding="UTF-8" standalone="no"?>
<svg
   width="600pt"
   height="600pt"
   viewBox="0 0 600 600"
   version="1.1"
   id="svg23"
   xmlns="http://www.w3.org/2000/svg"
   xmlns:svg="http://www.w3.org/2000/svg">
  <defs
     id="defs23" />
  <path
     fill-rule="nonzero"
     fill="rgb(93.333435%, 96.470642%, 98.823547%)"
     fill-opacity="1"
     d="M 0 600 L 599.148438 600 L 599.148438 0.609375 L 0 0.609375 Z M 0 600 "
     id="path1" />
  <path
     fill-rule="evenodd"
     fill="rgb(100%, 100%, 100%)"
     fill-opacity="1"
     d="M 599.148438 103.480469 L 599.148438 381.113281 L 374.675781 427.429688 L -0.246094 366.539062 L -0.246094 140.382812 L 20.8125 152.710938 C 28.925781 157.460938 38.605469 158.765625 47.6875 156.332031 C 56.769531 153.898438 64.5 147.929688 69.152344 139.757812 C 83.097656 115.261719 109.117188 100.132812 137.308594 100.132812 C 165.496094 100.132812 191.515625 115.261719 205.460938 139.757812 C 220.382812 165.964844 248.222656 182.152344 278.378906 182.152344 C 308.539062 182.152344 336.378906 165.964844 351.296875 139.757812 C 361.742188 121.410156 379.097656 108.007812 399.496094 102.542969 C 419.890625 97.078125 441.625 100.003906 459.84375 110.671875 C 489.148438 127.828125 524.101562 132.539062 556.902344 123.75 C 572.269531 119.632812 586.566406 112.710938 599.148438 103.480469 "
     id="path2" />
  <path
     fill-rule="evenodd"
     fill="rgb(76.470947%, 86.274719%, 95.294189%)"
     fill-opacity="1"
     d="M 599.148438 341.964844 L 599.148438 413.027344 L -0.246094 413.027344 L -0.246094 302.003906 C 19.683594 285.777344 45.675781 277.550781 72.445312 280.382812 C 114.191406 284.800781 154.027344 261.800781 171.078125 223.4375 C 180.542969 202.136719 201.660156 188.410156 224.964844 188.410156 C 248.273438 188.410156 269.394531 202.136719 278.859375 223.4375 C 292.734375 254.664062 319.980469 277.949219 352.988281 286.796875 C 386 295.640625 421.238281 289.097656 448.871094 268.988281 C 466.085938 256.464844 488.035156 252.390625 508.597656 257.898438 C 529.164062 263.40625 546.132812 277.914062 554.78125 297.367188 C 563.652344 317.328125 579.53125 333.125 599.148438 341.964844 "
     id="path3" />
  <path
     fill-rule="evenodd"
     fill="rgb(59.216309%, 74.510193%, 89.804077%)"
     fill-opacity="1"
     d="M 599.148438 377.363281 L 599.148438 413.027344 L -0.246094 413.027344 L -0.246094 357.308594 C 19.683594 349.167969 45.675781 345.039062 72.445312 346.460938 C 114.191406 348.675781 154.027344 337.136719 171.078125 317.882812 C 180.542969 307.191406 201.660156 300.304688 224.964844 300.304688 C 248.273438 300.304688 269.394531 307.191406 278.859375 317.882812 C 292.734375 333.554688 319.980469 345.242188 352.988281 349.679688 C 386 354.117188 421.238281 350.832031 448.871094 340.742188 C 466.085938 334.457031 488.035156 332.410156 508.597656 335.175781 C 529.164062 337.941406 546.132812 345.222656 554.78125 354.984375 C 563.652344 365.003906 579.53125 372.929688 599.148438 377.363281 "
     id="path4" />
  <path
     fill-rule="evenodd"
     fill="rgb(78.431702%, 83.921814%, 43.920898%)"
     fill-opacity="1"
     d="M -0.242188 600 L 599.148438 600 L 599.148438 413.027344 L -0.242188 413.027344 Z M -0.242188 600 "
     id="path5" />
  <path
     fill-rule="evenodd"
     fill="rgb(88.627625%, 91.764832%, 60.392761%)"
     fill-opacity="1"
     d="M 599.148438 436.566406 L 20.8125 413.027344 L 599.148438 413.027344 Z M 599.148438 436.566406 "
     id="path6" />
  <path
     fill-rule="evenodd"
     fill="rgb(86.66687%, 90.588379%, 56.079102%)"
     fill-opacity="1"
     d="M 81.472656 513.082031 L 560.445312 575.09375 L 235.394531 578.71875 Z M 599.148438 453.324219 L 35.296875 446.527344 L 599.148438 513.082031 Z M 599.148438 453.324219 "
     id="path7" />
  <path
     fill-rule="evenodd"
     fill="rgb(43.528748%, 30.195618%, 16.862488%)"
     fill-opacity="1"
     d="M 371.636719 600 L 86.734375 600 L 35.292969 563.328125 L 37.105469 556.085938 L 127.9375 376.8125 L 209.679688 393.824219 L 206.421875 418.460938 C 201.953125 452.207031 211.101562 486.34375 231.839844 513.335938 L 375.628906 557.648438 L 372.144531 585.964844 C 371.558594 590.746094 371.40625 595.429688 371.636719 600 "
     id="path8" />
  <path
     fill-rule="evenodd"
     fill="rgb(58.039856%, 67.451477%, 23.529053%)"
     fill-opacity="1"
     d="M 342.792969 600 L -0.242188 600 L -0.242188 333.550781 L 16.933594 332.101562 C 85.695312 326.300781 147.632812 333.558594 196.785156 353.175781 C 208.769531 357.960938 215.097656 367.101562 214.355469 378.5625 C 213.613281 390.023438 205.867188 402.855469 192.84375 414.191406 C 177.148438 427.847656 167.8125 443.308594 166.917969 457.117188 C 166.023438 470.929688 173.648438 481.945312 188.089844 487.710938 C 214.148438 498.109375 246.988281 501.957031 283.441406 498.882812 C 332.070312 494.777344 368.890625 509.765625 380.300781 538.300781 C 387.527344 556.382812 372.570312 581.453125 343.894531 599.320312 C 343.53125 599.550781 343.160156 599.773438 342.792969 600 "
     id="path9" />
  <path
     fill-rule="evenodd"
     fill="rgb(50.98114%, 59.608459%, 23.136902%)"
     fill-opacity="1"
     d="M 223.714844 600 L -0.242188 600 L -0.242188 490.058594 C 12.050781 488.214844 26.492188 485.4375 42.941406 483.246094 C 103.210938 475.214844 150.90625 512.746094 107.511719 536.617188 C 76.804688 553.507812 105.011719 561.503906 176.828125 559.222656 C 202.933594 558.394531 223.941406 574.671875 223.714844 600 "
     id="path10" />
  <path
     fill-rule="evenodd"
     fill="rgb(50.98114%, 59.608459%, 23.136902%)"
     fill-opacity="1"
     d="M 212.15625 366.492188 C 213.878906 370.097656 214.640625 374.15625 214.355469 378.5625 C 213.613281 390.023438 205.867188 402.855469 192.84375 414.191406 C 177.148438 427.847656 167.8125 443.308594 166.917969 457.117188 C 166.023438 470.929688 173.648438 481.945312 188.089844 487.710938 C 190.859375 488.8125 193.707031 489.847656 196.628906 490.804688 C 175.902344 489.800781 157.125 487.132812 145.023438 481.820312 C 130.617188 475.5 124.996094 463.417969 129.402344 448.269531 C 133.8125 433.121094 169.621094 411.1875 190.230469 396.207031 C 207.332031 383.773438 212.117188 375.894531 212.15625 366.492188 M 342.792969 600 L 279.710938 600 C 328.929688 580.035156 374.191406 547.824219 369.304688 530.515625 C 368.445312 525.554688 366.691406 521.015625 364.132812 516.902344 C 371.464844 522.789062 376.964844 529.964844 380.300781 538.300781 C 387.527344 556.382812 372.570312 581.453125 343.898438 599.320312 C 343.53125 599.550781 343.160156 599.773438 342.792969 600 "
     id="path11" />
  <path
     fill-rule="evenodd"
     fill="rgb(63.922119%, 69.020081%, 35.293579%)"
     fill-opacity="1"
     d="M 426.675781 356.664062 L 432.308594 383.636719 L 427.125 382.878906 L 433.054688 387.203125 L 435.199219 397.492188 L 436.265625 402.574219 L 427.125 400.085938 L 437.214844 407.128906 L 440.894531 424.753906 L 432.164062 423.84375 L 441.761719 428.890625 L 443.730469 438.316406 L 409.621094 438.316406 L 412.035156 426.742188 L 422.089844 420.644531 L 413.085938 421.726562 L 417.398438 401.082031 L 427.125 393.246094 L 418.464844 395.972656 L 422.335938 377.441406 L 427.125 373.40625 L 423.03125 374.097656 Z M 426.675781 356.664062 "
     id="path12" />
  <path
     fill-rule="evenodd"
     fill="rgb(88.627625%, 91.764832%, 60.392761%)"
     fill-opacity="1"
     d="M 520.351562 366.492188 L 523.878906 383.390625 L 520.632812 382.914062 L 524.347656 385.621094 L 525.691406 392.066406 L 526.359375 395.25 L 520.632812 393.691406 L 526.953125 398.101562 L 529.257812 409.140625 L 523.789062 408.570312 L 529.800781 411.730469 L 531.035156 417.636719 L 509.667969 417.636719 L 511.183594 410.386719 L 517.480469 406.570312 L 511.839844 407.246094 L 514.539062 394.3125 L 520.632812 389.40625 L 515.207031 391.113281 L 517.632812 379.507812 L 520.632812 376.980469 L 518.070312 377.414062 Z M 520.351562 366.492188 "
     id="path13" />
  <path
     fill-rule="evenodd"
     fill="rgb(88.627625%, 91.764832%, 60.392761%)"
     fill-opacity="1"
     d="M 542.113281 376.8125 L 544.679688 389.105469 L 542.320312 388.757812 L 545.019531 390.730469 L 546 395.417969 L 546.484375 397.738281 L 542.320312 396.601562 L 546.917969 399.808594 L 548.597656 407.84375 L 544.617188 407.429688 L 548.988281 409.726562 L 549.886719 414.023438 L 534.339844 414.023438 L 535.441406 408.75 L 540.023438 405.972656 L 535.921875 406.460938 L 537.886719 397.054688 L 542.320312 393.484375 L 538.375 394.726562 L 540.136719 386.28125 L 542.320312 384.441406 L 540.457031 384.757812 Z M 542.113281 376.8125 "
     id="path14" />
  <path
     fill-rule="evenodd"
     fill="rgb(88.627625%, 91.764832%, 60.392761%)"
     fill-opacity="1"
     d="M 567.246094 384.273438 L 569.441406 394.785156 L 567.425781 394.488281 L 569.730469 396.175781 L 570.570312 400.183594 L 570.984375 402.167969 L 567.425781 401.195312 L 571.355469 403.941406 L 572.789062 410.808594 L 569.386719 410.457031 L 573.128906 412.421875 L 573.894531 416.097656 L 560.601562 416.097656 L 561.542969 411.585938 L 565.460938 409.210938 L 561.949219 409.632812 L 563.632812 401.585938 L 567.425781 398.53125 L 564.046875 399.59375 L 565.554688 392.371094 L 567.425781 390.796875 L 565.828125 391.066406 Z M 567.246094 384.273438 "
     id="path15" />
  <path
     fill-rule="evenodd"
     fill="rgb(88.627625%, 91.764832%, 60.392761%)"
     fill-opacity="1"
     d="M 505.445312 367.125 L 508.972656 384.019531 L 505.730469 383.542969 L 509.441406 386.253906 L 510.789062 392.695312 L 511.453125 395.882812 L 505.730469 394.320312 L 512.046875 398.730469 L 514.351562 409.769531 L 508.886719 409.203125 L 514.894531 412.363281 L 516.128906 418.269531 L 494.765625 418.269531 L 496.277344 411.019531 L 502.574219 407.199219 L 496.933594 407.875 L 499.636719 394.945312 L 505.730469 390.035156 L 500.304688 391.742188 L 502.726562 380.136719 L 505.730469 377.609375 L 503.164062 378.042969 Z M 505.445312 367.125 "
     id="path16" />
  <path
     fill-rule="evenodd"
     fill="rgb(88.627625%, 91.764832%, 60.392761%)"
     fill-opacity="1"
     d="M 495.449219 379.359375 L 498.019531 391.65625 L 495.65625 391.308594 L 498.355469 393.28125 L 499.335938 397.964844 L 499.820312 400.285156 L 495.65625 399.152344 L 500.253906 402.359375 L 501.933594 410.390625 L 497.953125 409.976562 L 502.324219 412.277344 L 503.222656 416.574219 L 487.675781 416.574219 L 488.777344 411.300781 L 493.359375 408.519531 L 489.257812 409.011719 L 491.222656 399.605469 L 495.65625 396.035156 L 491.707031 397.273438 L 493.472656 388.828125 L 495.65625 386.992188 L 493.789062 387.304688 Z M 495.449219 379.359375 "
     id="path17" />
  <path
     fill-rule="evenodd"
     fill="rgb(48.234558%, 52.549744%, 22.3526%)"
     fill-opacity="1"
     d="M 554.832031 356.808594 L 566.851562 414.359375 L 555.796875 412.738281 L 568.441406 421.96875 L 573.027344 443.917969 L 575.292969 454.769531 L 555.796875 449.453125 L 577.320312 464.480469 L 585.175781 502.085938 L 566.550781 500.148438 L 587.019531 510.914062 L 591.222656 531.03125 L 518.441406 531.03125 L 523.601562 506.332031 L 545.046875 493.324219 L 525.835938 495.628906 L 535.035156 451.578125 L 555.796875 434.867188 L 537.3125 440.675781 L 545.570312 401.136719 L 555.796875 392.53125 L 547.0625 394.007812 Z M 554.832031 356.808594 "
     id="path18" />
  <path
     fill-rule="evenodd"
     fill="rgb(48.234558%, 52.549744%, 22.3526%)"
     fill-opacity="1"
     d="M 516.128906 379.359375 L 525.847656 425.894531 L 516.910156 424.582031 L 527.132812 432.046875 L 530.839844 449.792969 L 532.671875 458.566406 L 516.910156 454.269531 L 534.3125 466.417969 L 540.660156 496.824219 L 525.601562 495.257812 L 542.152344 503.964844 L 545.550781 520.226562 L 486.703125 520.226562 L 490.875 500.257812 L 508.214844 489.742188 L 492.683594 491.601562 L 500.121094 455.988281 L 516.910156 442.476562 L 501.964844 447.171875 L 508.640625 415.203125 L 516.910156 408.242188 L 509.847656 409.4375 Z M 516.128906 379.359375 "
     id="path19" />
  <path
     fill-rule="evenodd"
     fill="rgb(63.922119%, 69.020081%, 35.293579%)"
     fill-opacity="1"
     d="M 316.28125 373.386719 L 320.191406 392.089844 L 316.597656 391.566406 L 320.707031 394.5625 L 322.199219 401.699219 L 322.933594 405.226562 L 316.597656 403.496094 L 323.59375 408.382812 L 326.144531 420.605469 L 320.089844 419.976562 L 326.746094 423.476562 L 328.109375 430.011719 L 304.457031 430.011719 L 306.132812 421.984375 L 313.101562 417.757812 L 306.859375 418.503906 L 309.847656 404.1875 L 316.597656 398.753906 L 310.589844 400.644531 L 313.273438 387.792969 L 316.597656 384.992188 L 313.757812 385.476562 Z M 316.28125 373.386719 "
     id="path20" />
  <path
     fill-rule="evenodd"
     fill="rgb(88.627625%, 91.764832%, 60.392761%)"
     fill-opacity="1"
     d="M 282.320312 364.800781 L 285.847656 381.695312 L 282.605469 381.222656 L 286.3125 383.929688 L 287.660156 390.371094 L 288.324219 393.558594 L 282.605469 391.996094 L 288.921875 396.410156 L 291.226562 407.449219 L 285.757812 406.878906 L 291.769531 410.039062 L 293.003906 415.945312 L 271.636719 415.945312 L 273.152344 408.695312 L 279.449219 404.875 L 273.808594 405.550781 L 276.507812 392.621094 L 282.605469 387.71875 L 277.175781 389.421875 L 279.601562 377.816406 L 282.605469 375.285156 L 280.039062 375.722656 Z M 282.320312 364.800781 "
     id="path21" />
  <path
     fill-rule="evenodd"
     fill="rgb(88.627625%, 91.764832%, 60.392761%)"
     fill-opacity="1"
     d="M 267.414062 365.429688 L 270.941406 382.324219 L 267.695312 381.847656 L 271.410156 384.558594 L 272.753906 391.003906 L 273.421875 394.1875 L 267.695312 392.628906 L 274.015625 397.039062 L 276.320312 408.078125 L 270.851562 407.507812 L 276.863281 410.667969 L 278.097656 416.574219 L 256.730469 416.574219 L 258.246094 409.324219 L 264.542969 405.507812 L 258.902344 406.179688 L 261.601562 393.25 L 267.699219 388.34375 L 262.269531 390.050781 L 264.695312 378.445312 L 267.699219 375.917969 L 265.132812 376.351562 Z M 267.414062 365.429688 "
     id="path22" />
  <path
     fill-rule="evenodd"
     fill="rgb(88.627625%, 91.764832%, 60.392761%)"
     fill-opacity="1"
     d="M 293.09375 382.789062 L 295.660156 395.082031 L 293.296875 394.738281 L 296 396.710938 L 296.976562 401.398438 L 297.460938 403.714844 L 293.296875 402.578125 L 297.894531 405.789062 L 299.574219 413.820312 L 295.597656 413.40625 L 299.96875 415.707031 L 300.867188 420.003906 L 285.320312 420.003906 L 286.421875 414.730469 L 291.003906 411.949219 L 286.898438 412.441406 L 288.863281 403.035156 L 293.300781 399.464844 L 289.351562 400.703125 L 291.117188 392.257812 L 293.300781 390.421875 L 291.433594 390.734375 Z M 293.09375 382.789062 "
     id="path23" />
</svg>
