<?xml version="1.0" encoding="utf-8"?>
<!-- Generator: Adobe Illustrator 28.2.0, SVG Export Plug-In . SVG Version: 6.00 Build 0)  -->
<svg version="1.1" id="Layer_1" xmlns="http://www.w3.org/2000/svg" xmlns:xlink="http://www.w3.org/1999/xlink" x="0px" y="0px"
	 viewBox="0 0 128 128" style="enable-background:new 0 0 128 128;" xml:space="preserve">
<style type="text/css">
	.st0{fill:#8CC63F;}
	.st1{fill:#006837;}
	.st2{fill:#754C24;}
	.st3{fill:#42210B;}
	.st4{fill:#8C6239;stroke:#42210B;stroke-miterlimit:10;}
	.st5{fill:#D9E021;}
	.st6{fill:#8C6239;}
	.st7{fill:#A67C52;}
	.st8{fill:#C69C6D;}
</style>
<g>
	<path class="st0" d="M38.4,78.4c-4.9,1.9-17-13.3-19.1-29.7C18.1,39,20.6,30.3,16.5,27c-3.6-2.9-9.4,0.9-9.8-0.3
		c-0.3-1.1,4.1-5.1,9.2-6c8.8-1.6,16.3,6.7,17.5,8C46.7,43.9,44.5,76,38.4,78.4z"/>
	<path class="st1" d="M38.4,78.5c-0.8,0.3-1.7,0.1-2.4-0.1c-2.3-0.9-4.1-2.7-5.8-4.4c-6.6-7.2-11-16.6-11.8-26.4
		c-0.3-3.3-0.1-6.5,0.1-9.7c0.1-4.1,0.9-11-4.7-11.7c-1.9-0.2-3.9,0.5-5.8,1c-0.3,0.1-0.7,0.2-1.1,0.1c-1.3-0.6,0.2-2.3,0.8-2.9
		C21,11.9,37.4,27.3,41.3,41c3,9.4,3.4,19.4,1.5,29C41.9,73,41.3,76.9,38.4,78.5L38.4,78.5z M38.3,78.3c2.7-1.6,3.3-5.5,3.8-8.4
		c1.2-9.4-0.1-19.3-2.9-28.3C35.7,29.1,21.1,14.1,8.3,25c-0.4,0.3-1.1,1.1-1.2,1.6c0,0-0.1-0.1,0-0.1c0.6,0,1.3-0.2,1.9-0.4
		c9.6-2.9,10.6,4,10.6,11.7c0.1,3.2,0.1,6.4,0.5,9.6c1.2,9.3,4.7,18.7,10.6,26.2C32.5,75.8,35.2,79,38.3,78.3L38.3,78.3z"/>
</g>
<g>
	<path class="st0" d="M22.3,28.5c2.3,3.1,4.7,7.1,7,12.1c5.6,12.6,6.8,24.9,7,32.1"/>
	<path class="st1" d="M22.3,28.5c8.7,10.8,13,24.7,13.9,38.4c0.1,2,0.2,3.9,0.1,5.9c-0.2-2-0.3-3.9-0.6-5.9
		C34.1,53.4,29.9,40,22.3,28.5L22.3,28.5z"/>
</g>
<g>
	<path class="st2" d="M39,80.4c0.8-0.4,6.3,4.7,9.4,11.5c6.7,14.5-0.3,30.1-1.3,30c-0.8-0.1,2.7-10.4-1.3-24.7
		C42.9,87.2,38.1,80.8,39,80.4z"/>
	<path class="st3" d="M38.9,80.3c0.3-0.1,0.5,0.1,0.8,0.2c1.4,0.9,2.5,2.1,3.6,3.3c9.3,9.9,12.1,25.2,6.3,37.7
		c-0.4,0.7-0.6,1.2-1.5,1.9c-0.7,0.4-1.6,0.4-2.2-0.2c-0.8-0.7-0.7-1.9-0.6-2.6c0,0,0.4-2.8,0.4-2.8c1.6-10.9,0.3-22.3-4.6-32.2
		c-0.4-0.8-1.5-3-1.8-3.8C39,81.3,38.5,80.6,38.9,80.3L38.9,80.3z M39,80.4c-0.1,0,0,0.3,0,0.5c0.2,0.7,0.6,1.3,0.9,1.9
		c0,0,1.3,2.5,1.3,2.5c5.2,10,7.7,21.4,6.3,32.6c0,0.6-0.5,3.2-0.3,3.7c0,0,0,0,0,0c0,0-0.1,0-0.1,0c0,0,0,0,0,0
		c0.3-0.3,0.5-0.7,0.8-1.1c4.6-10,4.5-22.6-1.4-32.1c-1.7-2.7-3.7-5.4-6.2-7.4C39.8,80.8,39.4,80.4,39,80.4L39,80.4z"/>
</g>
<path class="st4" d="M143.5,101.8"/>
<g>
	<path class="st0" d="M76.5,72.5c-3-4,7.2-20.2,20.3-28.4c5.9-3.7,10.3-4.4,16.9-10.5c6.1-5.6,8.6-10.8,10.7-10
		c2.4,0.8,2,8.1,1.3,12.2c-0.2,1.1-1.3,7.3-5.4,13.2C110.2,63.9,80.6,77.9,76.5,72.5z"/>
	<path class="st1" d="M76.5,72.6c-2.4-4.2,4.2-13.6,6.7-17.1c3.8-5.1,8.6-9.5,14.2-12.7c4.2-2.3,8.6-3.8,12.5-6.5
		c3.9-2.7,7-6.2,10-9.8c1.4-1.7,4.2-5.3,6-1.9c1,2.3,1,4.8,1,7.2c-0.1,4.8-1.3,9.6-3.4,14c-5.7,11.3-17.6,19.1-28.9,24.2
		C90.7,71.4,79.7,76.1,76.5,72.6L76.5,72.6z M76.6,72.5c3.4,3.4,13.8-1.9,17.4-3.8c8.1-4.5,16-9.7,22.5-16.4
		c6.4-6.6,9.7-16.1,9.1-25.2c-0.6-5.1-2.9-2.8-5.1-0.2c-4.1,4.8-8.5,9.5-14,12.8c-2.7,1.6-5.6,3-8.2,4.6c-5.2,3.2-9.9,7.4-14.1,12
		C81.3,59.6,74.4,67.9,76.6,72.5L76.6,72.5z"/>
</g>
<g>
	<path class="st0" d="M123.1,29.6c-4.8,6.5-10.9,13.9-18.5,21.4c-8,7.9-15.8,14.1-22.7,18.9"/>
	<path class="st1" d="M123.1,29.6c-10.9,16-25,29.8-41.2,40.3C97.3,58.3,111.2,44.7,123.1,29.6L123.1,29.6z"/>
</g>
<g>
	<path class="st2" d="M75.6,75.4c-0.4-0.3-4.4,3.8-8.1,9c-12.6,17.7-14.4,38.3-13,38.8c1.2,0.3,6-12.1,8.4-18.9
		c1.9-5.6,1.6-5.9,3.2-10.1C70.4,82.5,76.1,75.7,75.6,75.4z"/>
	<path class="st3" d="M75.5,75.5c-9.7,8.4-15.3,22.1-18.1,34.4c-0.9,3.9-1.8,8.7-1.5,12.3c-0.4-0.8-1.6-1.1-2.3-0.5
		c1.9-2.9,3.4-6.9,4.9-10.3c1.7-4,3.5-8.1,4.9-12.3c1.3-4.3,3.3-8.4,5.4-12.3c1.8-3.4,3.9-6.8,6-10c0,0,0.4-0.7,0.4-0.7
		c0.1-0.1,0.1-0.2,0.2-0.4C75.5,75.7,75.5,75.5,75.5,75.5L75.5,75.5z M75.7,75.3c0.2,0.2,0,0.4,0,0.5c-0.1,0.2-0.5,0.9-0.6,1.1
		c-4.4,7-8.3,14.5-10.4,22.5c-0.4,1.9-8.8,26.7-10.4,23.6c-0.4-1.2-0.2-2.6-0.2-3.8c0.3-3.3,1-6.6,1.8-9.8c2.3-8.6,5.9-16.8,11-24.2
		c2.4-3.4,5-6.7,8.1-9.5C75.1,75.5,75.3,75.2,75.7,75.3L75.7,75.3z"/>
</g>
<g>
	<path class="st5" d="M53.7,50.7c-1.4-6.3-3.2-13.6-8.5-21.4C38,18.6,30.9,17.1,31.5,13.8C33.1,4,97.7-0.7,103,15.1
		c2.5,7.4-10.2,12.4-26.1,38.1C63.5,74.9,59,93.2,56.2,92.4C53.5,91.6,59.2,74.7,53.7,50.7z"/>
	<path class="st6" d="M53.6,50.8c-2.1-10.4-6.6-20.4-14.3-27.7c-1.9-1.8-4-3.4-6.1-5.1c-1.1-1-2.4-1.9-2.6-3.7
		c0-4.3,6.9-6.1,10.1-7.1c11.1-3.8,63.1-6.5,63,10.2c-0.5,4.2-3.9,7.2-6.4,10.3c-1.7,2-3.5,4-5.2,6c-12,14.1-21.1,30.5-28.4,47.4
		c-1.1,2.4-2.1,4.9-3.3,7.3c-0.8,1.5-1.5,3.3-3,4.5c-1.3,0.8-2.5-0.1-2.6-1.4c-0.3-3.1,0.3-6.2,0.5-9.2C56.3,71.8,56,61.1,53.6,50.8
		L53.6,50.8z M53.8,50.7c2.4,10.4,3.2,21.1,2.7,31.8c0,3-0.7,6.4,0,9.1c0,0-0.1-0.1-0.1-0.1c0,0,0,0,0,0c1-1,1.6-2.5,2.3-3.8
		c4.2-9.7,8.4-19.6,13.7-28.8c5.3-9.3,11.4-18.1,18.5-26.1c1.8-2,3.6-4,5.4-5.9c3-3.6,8.6-7.9,5.6-13C93,1.5,54.6,5,41.2,8.9
		c-2.6,0.8-8.6,2.4-8.9,5.3c0,0.8,1,1.7,2,2.6c2,1.7,4.1,3.5,5.9,5.4C47.7,29.9,51.7,40.3,53.8,50.7L53.8,50.7z"/>
</g>
<g>
	<path class="st5" d="M52.4,14.7c3.5,6.3,8.4,17.2,10.1,31.6c1.7,15.2-1,27.5-3.2,34.5"/>
	<path class="st7" d="M52.4,14.7C62.7,31.9,65.9,53,61.6,72.6c-0.6,2.8-1.4,5.5-2.3,8.2C65.3,58.8,62.8,34.9,52.4,14.7L52.4,14.7z"
		/>
</g>
<g>
	<path class="st5" d="M68.6,14.7c1.7,5.8,3.8,15.9,2.7,28.3c-1,11.1-4.3,19.7-6.7,24.9"/>
	<path class="st6" d="M68.6,14.7c5.7,17.3,4.3,37-4,53.2c0.8-2.1,1.7-4.2,2.3-6.4C72,46.4,72.4,30.1,68.6,14.7L68.6,14.7z"/>
</g>
<g>
	<path class="st5" d="M76,48.9c0.6-4.7,2.1-12.2,6.9-20c2.7-4.5,5.7-7.8,8.2-10.2"/>
	<path class="st8" d="M76,48.9c0.6-10.1,5-20,12-27.3c1-1,2.1-2,3.2-2.9C83.3,27,78.1,37.6,76,48.9L76,48.9z"/>
</g>
</svg>
